<svg id="ab05b65c-919f-48f2-af34-3cda8867cb29" data-name="Layer 1" xmlns="http://www.w3.org/2000/svg" viewBox="0 0 270.22 105.72"><path d="M104.71 0C67.48 0 45.18 15.53 39.87 25.89S0 89 0 89h134.4s26.6-49.18 32.06-60S144 0 104.71 0zM48.18 24.8c2.15-2.75 7.58-8.51 18.09-13.21l20 13.21zm51.26 0h-1.9L73.39 8.87a98.44 98.44 0 0127.31-4.35zm7.46 0l1.26-20.29a98.86 98.86 0 0127.71 4.37l-26.1 15.92zm14.33 0l21.67-13.21c10.8 4.89 15.56 10.76 17 13.21zm86.06 18.99a18 18 0 00-7.28-1.2h-13.64c-2.5 0-4 .7-4.63 2.88l-7.5 24.32c-.67 2.18.36 2.88 2.85 2.88h10.76c7.64 0 9-.49 12-1.68l-4.45 9.13h-30.74c-8.11 0-11.55-3.51-8.56-13.21l5.72-18.55c3-9.7 8.6-13.22 16.71-13.22h29.94zm3.71 4.57c3-9.7 8.59-13.22 16.7-13.22h28.54c8.11 0 11.55 3.52 8.56 13.22L259 66.91c-3 9.7-8.59 13.21-16.7 13.21h-28.52c-8.11 0-11.55-3.51-8.56-13.21zm12.41 21.43c-.67 2.18.36 2.88 2.85 2.88h8.27c2.49 0 4-.7 4.63-2.88l7.5-24.32c.67-2.18-.36-2.88-2.85-2.88h-8.27c-2.49 0-4 .7-4.63 2.88zm-49.29-45.17a7.54 7.54 0 00-.5 2.86h-5.49a9.61 9.61 0 001.27-2.86l3.37-10.91a7.54 7.54 0 00.5-2.86H184l-.63 3.15a3.91 3.91 0 00-2-.44h-3.85l-1.21 3.9h3.37a5.71 5.71 0 002.26-.44l-1.12 3.64a3.9 3.9 0 00-2-.45h-3.37zM186 22.7l-.35 1.14c-.26.88-.08 1.25.66 1.25h4.39a4.15 4.15 0 002.23-.52l-1.25 2.91h-9.09c-2 0-2.28-1.15-1.49-3.69l1.44-4.79c.79-2.55 1.73-3.7 3.78-3.7h6.94c2.05 0 2.28 1.15 1.49 3.7l-1.16 3.74zm3.93-2.39l.52-1.67c.22-.7.15-1-.35-1h-1.88c-.5 0-.75.28-1 1l-.52 1.67zm11.8-5.05l-.26 1.28c.41-.63.9-1.28 1.58-1.28h3.69c2.15 0 2.51 1.72 1.66 4.45l-1.53 5a5.45 5.45 0 00-.37 2.81H201a7.34 7.34 0 001.37-2.81l1.86-6c.23-.75.12-1-.44-1h-1.67c-.56 0-.83.26-1.06 1l-1.86 6a5.57 5.57 0 00-.37 2.81h-5.57a7.34 7.34 0 001.37-2.81l2-6.6a5.33 5.33 0 00.37-2.81zm11.8 7.44l-.35 1.14c-.26.88-.08 1.25.66 1.25h4.39a4.15 4.15 0 002.23-.52l-1.25 2.91h-9.09c-2.05 0-2.28-1.15-1.49-3.69l1.49-4.79c.79-2.55 1.73-3.7 3.78-3.7h6.94c2 0 2.28 1.15 1.49 3.7l-1.16 3.74zm.5-9l3.51-3.85h3.2l1.15 3.85H219l-.46-2-1.69 2zm3.43 6.6l.52-1.67c.22-.7.15-1-.35-1h-1.88c-.5 0-.75.28-1 1l-.52 1.67zm9.41-7.53l4.62-.16-.82 2.65h3.63l-.73 2.4h-3.64l-2 6.44c-.24.78-.2 1 .61 1h1.6a3.8 3.8 0 001.79-.47l-1.17 2.86H225c-1.45 0-2.47-.78-1.53-3.82l1.86-6h-2l.74-2.4h1.95zm13.25 2.49l-.45 2c.89-1.46 1.54-2 2.95-2h2.22l-1.23 4c-.43-.45-.57-.6-1.93-.6-1.8 0-2.27.42-2.79 2.08l-1.21 3.92a5.57 5.57 0 00-.37 2.81h-5.57a7.5 7.5 0 001.37-2.81l2-6.6a5.33 5.33 0 00.37-2.81zm7.82 7.44l-.35 1.14c-.26.88-.08 1.25.66 1.25h4.39a4.15 4.15 0 002.23-.52l-1.25 2.91h-9.09c-2.05 0-2.28-1.15-1.49-3.69l1.49-4.79c.79-2.55 1.73-3.7 3.78-3.7h6.94c2.05 0 2.28 1.15 1.49 3.7l-1.16 3.74zm3.93-2.39l.52-1.67c.22-.7.15-1-.35-1h-1.88c-.5 0-.75.28-1 1l-.52 1.67zm15.31-1.41c2.09 0 2 1.43 1.58 2.91l-.76 2.45a4.1 4.1 0 01-3.72 3.22h-8.48l.56-2.94c.68.52 1 .7 2.63.7h3.85c.47 0 .65-.15.8-.65l.08-.26c.15-.49.07-.65-.4-.65h-4c-2.09 0-2-1.42-1.57-2.93l.73-2.37a4.15 4.15 0 013.85-3.12h7.85l-.55 3c-.18-.59-1.4-.8-2.46-.8h-3.54c-.45 0-.67.16-.76.44l-.16.52c-.09.29 0 .44.49.44zm-96.89 71.68a6.21 6.21 0 00-1.77 2.69l-1.63 4.26c-.81 2.13-.85 2.48-.65 3.39h-5.33l.41-1.59a2.74 2.74 0 01-2.81 1.59h-5.35c-2.57 0-3.49-1.34-2.07-5.06l2.72-7.11c1.42-3.72 3.37-5.07 5.94-5.07h11.59L170.5 87a4.54 4.54 0 00-2.25-.46h-6.42a1.51 1.51 0 00-1.61 1.1L156.66 97c-.32.84 0 1.11.76 1.11h2a1.51 1.51 0 001.65-1.11l1.35-3.53h-2.26a2.7 2.7 0 00-1.14.33l1.22-3.18zm7.89-2.32l-.58 2h.05c1.14-1.51 2-2 3.78-2h2.84l-1.58 4.15c-.54-.46-.73-.62-2.46-.62-2.31 0-2.92.43-3.58 2.16L175.1 98a4.62 4.62 0 00-.47 2.91h-7.13a7.37 7.37 0 001.75-2.91l2.62-6.84a4.62 4.62 0 00.47-2.91zm18.72 0c2.8 0 3.42 1.29 2.09 4.77l-2.11 5.52a3.5 3.5 0 00-.34 2.37h-5.84l.24-1.4h-.05c-.73 1.13-1.33 1.4-2.92 1.4h-4.16c-2.62 0-2.91-1.18-1.9-3.82l.35-.92c1-2.64 2.2-3.82 4.83-3.82h5.32c.82 0 1.08-.22 1.3-.81s.14-.81-.68-.81h-5.82a5.33 5.33 0 00-2.53.54l1.57-3zm-7 6.57c-.91 0-1.3.17-1.65 1.08l-.56 1.46c-.35.91-.06 1 .83 1.08h1.36c1.11 0 1.31-.19 1.93-1.81l.69-1.81zm18.49-6.57l-.33 1.32h.05a2.77 2.77 0 012-1.32h4.73c2.75 0 3.21 1.78 2.13 4.61L215 98a4.62 4.62 0 00-.47 2.91h-7.13a7.36 7.36 0 001.77-2.91l2.37-6.22c.3-.78.16-1.05-.56-1.05h-2.13c-.72 0-1.07.27-1.37 1.05L205.11 98a4.55 4.55 0 00-.47 2.91h-7.14a7.24 7.24 0 001.76-2.91l2.62-6.84a4.58 4.58 0 00.46-2.91zm7.06 12.66a6.41 6.41 0 001.4-2.37l4.78-12.5a4.17 4.17 0 00.41-2.37h6.34l-2.22 5.82h.05a2.36 2.36 0 012-1.24h4.59c2.67 0 3 1.62 2.16 3.94L233.1 97c-.88 2.32-2.49 3.93-5.17 3.93H223c-.62 0-.76-.43-.83-1.34l-.88 1.34zm7.66-3.45c-.27.71-.12 1 .45 1h2.33c.56 0 .92-.27 1.18-1l2.21-5.76c.27-.7.12-1-.45-1h-2.33c-.57 0-.92.27-1.18 1zm14.23 3.45c-2.75 0-3.21-1.78-2.13-4.6l2-5.15a4.62 4.62 0 00.47-2.91h6.49l-3.49 9.13c-.3.79-.16 1.06.56 1.06h2.16c.54 0 .72-.09 1.1-1.08l2.5-6.71c.6-1.59.55-1.83.44-2.4h6.32l-5.3 13.85c-.91 2.4-2.49 3.61-4.62 3.61h-11.43l.74-3.1a3.34 3.34 0 002.29.62H241c1 0 1.31-.32 1.54-.92l1-2.64h-.05a2.36 2.36 0 01-2.36 1.24z" fill="#231f20"/><path d="M48.66 72.39c-1.33 4.29-1.22 6-.83 7.73H25.69c1.47-1.75 2.62-3.44 3.94-7.73l9.1-29.52c1.33-4.28 1.22-6 .36-7.73H80c7.41 0 12.07 1.83 9.25 11l-2.17 7c-2.82 9.14-8.6 11-16 11H51.21zm4.85-15.74h10c2.71.07 3.65-.7 4.63-3.87l1.95-6.32c1-3.17.51-3.94-2.24-3.87h-10zm45.62 23.47l-3.85-40.83a6.76 6.76 0 00-1.77-4.15h23.71a12.2 12.2 0 00-1.15 2.46 13.38 13.38 0 00-.24 5.84l2.55 27.12 20.06-27.12a20.32 20.32 0 003.36-5.84 9.43 9.43 0 00.37-2.46H155c-2 1.48-4.29 3.8-7.51 8.15l-27.07 36.83z" fill="#fff"/></svg>