<?xml version="1.0" encoding="utf-8"?>
<!-- Generator: Adobe Illustrator 25.3.1, SVG Export Plug-In . SVG Version: 6.00 Build 0)  -->
<svg version="1.1" id="Layer_1" xmlns="http://www.w3.org/2000/svg" xmlns:xlink="http://www.w3.org/1999/xlink" x="0px" y="0px"
	 viewBox="0 0 285 280.3" style="enable-background:new 0 0 285 280.3;" xml:space="preserve">
<style type="text/css">
	.st0{fill:#FFE9E4;}
	.st1{fill:none;stroke:#FD6940;stroke-width:4.6317;stroke-linecap:round;stroke-linejoin:round;}
</style>
<g>
	<circle class="st0" cx="142.5" cy="140.2" r="138.2"/>
	<desc>Created with Sketch.</desc>
	<g id="Page-1">
		<g id="Construction---Outline" transform="translate(-120.000000, -3283.000000)">
			
				<g id="_x32_41--Engineer--_x28_construction_x2C_-tool_x2C_-work_x2C_-building_x2C_-outline_x29_" transform="translate(121.000000, 3284.000000)">
				<path id="Stroke-3496" class="st1" d="M150.8,79v9.3"/>
				<path id="Stroke-3497" class="st1" d="M132.2,88.2V79"/>
				<path id="Stroke-3498" class="st1" d="M150.8,79v-2.3c0-2.6-2.1-4.7-4.7-4.7h-9.2c-2.6,0-4.7,2.1-4.7,4.7V79
					c-17.3,4.2-30.1,18.5-30.1,37.1v4.6h78.7V116C180.9,97.5,168,83.1,150.8,79L150.8,79z"/>
				<path id="Stroke-3499" class="st1" d="M97.5,120.6h88"/>
				<path id="Stroke-3500" class="st1" d="M106.8,120.6v11.6c0,20.5,15.6,41.7,34.7,41.7s34.7-21.2,34.7-41.7v-11.6H106.8
					L106.8,120.6z"/>
				<polygon id="Stroke-3501" class="st1" points="150.8,194.7 132.2,194.7 141.5,173.9 				"/>
				<polygon id="Stroke-3502" class="st1" points="129.9,206.3 132.2,194.7 150.8,194.7 153.1,206.3 				"/>
				<path id="Stroke-3503" class="st1" d="M116.7,160.4L116,160l-2.3,9.3l18.5,25.5l9.3-20.8C131.8,173.9,123,168.4,116.7,160.4
					L116.7,160.4z"/>
				<path id="Stroke-3504" class="st1" d="M166.3,160.4c-6.3,8.1-15.1,13.6-24.8,13.6l9.3,20.8l18.5-25.5L167,160L166.3,160.4
					L166.3,160.4z"/>
				<path id="Stroke-3505" class="st1" d="M203,187.1c-12.8-6.7-24.9-11.8-36-13.2h-1.1l-15.2,20.8l2.3,11.6h-0.9l0,0h56.4v-9.9
					C208.7,192.5,206.5,188.9,203,187.1L203,187.1z"/>
				<path id="Stroke-3506" class="st1" d="M117.1,173.9H116c-11.2,1.3-23.3,6.4-36,13.2c-3.5,1.8-5.6,5.4-5.6,9.4v9.9h55.6l2.3-11.6
					L117.1,173.9L117.1,173.9z"/>
				<polygon id="Stroke-3507" class="st1" points="129.9,206.3 130.8,206.3 130.8,206.3 				"/>
				<path id="Stroke-3508" class="st1" d="M107.7,96.3l17.6,3.5L121.9,83C116.1,86.2,111.2,90.7,107.7,96.3L107.7,96.3z"/>
				<path id="Stroke-3509" class="st1" d="M175.3,96.3l-17.6,3.5l3.4-16.8C166.9,86.2,171.8,90.7,175.3,96.3L175.3,96.3z"/>
			</g>
		</g>
	</g>
</g>
</svg>
